<svg width="1602" height="566" viewBox="0 0 1602 566" fill="none" xmlns="http://www.w3.org/2000/svg">
<path d="M136.784 239.275C200.961 109.755 253.962 2.82004 254.527 1.6413C255.329 0.0382151 255.706 -0.291831 255.989 0.226813C256.178 0.604009 309.226 107.728 373.827 238.19C438.428 368.7 491.288 475.729 491.288 475.965C491.288 476.295 482.847 476.437 466.909 476.437C453.47 476.437 438.004 476.201 432.581 475.965C427.158 475.682 420.321 475.258 417.492 474.975C414.662 474.692 410.277 474.079 407.825 473.608C405.373 473.089 401.648 472.146 399.573 471.439C397.498 470.779 393.679 469.129 391.085 467.855C388.492 466.582 384.767 464.414 382.833 463.141C380.9 461.82 377.694 459.416 375.76 457.813C373.827 456.21 370.338 452.909 368.027 450.457C365.717 448.006 362.039 443.574 359.775 440.603C357.512 437.633 354.305 432.965 352.608 430.23C350.91 427.496 348.222 422.922 346.619 420.093C345.063 417.264 323.938 373.509 299.748 322.871C275.558 272.232 255.659 230.882 255.518 230.976C255.376 231.071 239.721 262.519 220.765 300.852C201.762 339.232 186.201 370.728 186.201 370.916C186.201 371.152 205.629 371.293 272.493 371.293L272.257 377.281C272.116 380.629 271.644 385.768 271.267 388.739C270.843 391.709 269.805 396.943 268.957 400.29C268.108 403.638 266.646 408.541 265.703 411.135C264.713 413.728 262.402 419.009 260.469 422.922C258.583 426.788 255.471 432.352 253.537 435.181C251.651 438.057 248.728 442.065 247.03 444.139C245.332 446.214 242.597 449.373 240.9 451.165C239.202 452.956 235.949 456.021 233.591 457.954C231.281 459.887 227.555 462.716 225.339 464.178C223.123 465.687 219.162 467.95 216.521 469.317C213.834 470.637 209.825 472.335 207.562 473.136C205.252 473.891 201.951 474.881 200.112 475.352C197.047 476.107 190.587 476.154 108.303 476.295C24.1802 476.437 19.7477 476.39 19.9363 475.635C20.0307 475.164 72.6545 368.794 136.784 239.275Z" fill="#00A935"/>
<path d="M174.554 67.4621C177.949 66.2833 183.844 64.5388 187.569 63.5015C191.294 62.4642 194.548 61.7098 194.736 61.8041C194.972 61.8984 190.822 70.6211 175.922 100.42L171.018 102.306C168.33 103.343 162.011 106.219 156.966 108.718C151.92 111.217 145.319 114.706 142.348 116.45C139.377 118.195 134.379 121.354 131.267 123.429C128.155 125.503 123.486 128.804 120.893 130.784C118.3 132.717 113.631 136.489 110.519 139.082C107.407 141.675 101.466 147.192 97.316 151.341C93.1193 155.49 87.508 161.525 84.7731 164.779C82.0381 168.032 78.2187 172.794 76.2853 175.387C74.352 177.98 71.8057 181.47 70.6269 183.167C69.4009 184.864 67.3261 188.023 65.9586 190.239C64.544 192.455 62.3749 196.039 61.1017 198.255C59.8286 200.471 56.9994 205.752 54.8774 210.042C52.7083 214.333 49.8791 220.368 48.5588 223.48C47.2856 226.592 45.2109 231.92 44.032 235.267C42.806 238.615 40.9198 244.603 39.7881 248.469C38.7036 252.382 37.0061 259.125 36.1101 263.557C35.1671 267.989 33.9882 274.637 33.4695 278.409C32.9508 282.181 32.2435 287.792 31.9606 290.904C31.6305 294.015 31.3476 302.502 31.3476 309.763C31.3476 317.024 31.5833 325.747 31.9134 329.095C32.2435 332.442 32.9508 338.194 33.4695 341.825C33.9882 345.455 35.0256 351.491 35.7801 355.263C36.5345 359.035 37.9491 364.881 40.5426 374.358L31.2061 393.312C26.0663 403.732 21.681 412.219 21.3981 412.125C21.1623 412.078 19.7948 409.249 18.4274 405.901C17.0128 402.554 14.4664 395.481 12.6746 390.153C10.9299 384.825 8.47789 376.574 7.29904 371.765C6.12019 366.956 4.61126 360.072 3.95111 356.441C3.29095 352.811 2.34787 346.681 1.82918 342.768C1.35764 338.902 0.697483 332.206 0.367405 327.916C0.0373273 322.918 -0.104135 314.714 0.0844812 305.048C0.273097 293.921 0.603175 287.745 1.35764 281.474C1.87633 276.806 2.86657 270.016 3.47957 266.386C4.09257 262.755 5.36573 256.626 6.26165 252.712C7.15758 248.846 8.85512 242.245 10.0811 238.096C11.3071 233.947 13.4291 227.393 14.8437 223.48C16.2583 219.613 18.7575 213.343 20.3135 209.571C21.9168 205.799 25.0761 199.151 27.2923 194.719C29.5557 190.286 33.328 183.403 35.7329 179.395C38.1849 175.387 41.7215 169.776 43.7019 166.9C45.6352 164.024 48.9832 159.404 51.1051 156.527C53.2742 153.651 57.3294 148.606 60.1115 145.212C62.9408 141.864 68.4578 135.829 72.3244 131.868C76.2382 127.861 81.7552 122.486 84.5844 119.939C87.4608 117.441 92.3177 113.291 95.4299 110.745C98.542 108.246 104.059 104.05 107.69 101.504C111.321 98.9108 117.074 95.0917 120.421 92.97C123.817 90.8954 129.852 87.3592 133.86 85.1903C137.868 82.9743 144.14 79.8153 147.771 78.1179C151.402 76.4676 157.485 73.8273 161.351 72.3185C165.171 70.7626 171.112 68.5937 174.554 67.4621Z" fill="#7D7D7D"/>
<path d="M1500.19 312.639L1501.8 311.083L1503.4 309.528H1596.58L1597.1 312.026C1597.33 313.347 1597.71 316.93 1597.85 319.9C1597.99 322.965 1597.9 326.737 1597.61 328.623C1597.33 330.462 1596.67 333.338 1595.16 338.289H1533.39V371.529H1584.08L1584.93 374.594C1585.45 376.48 1585.92 379.969 1586.06 383.552C1586.25 387.796 1586.11 390.483 1585.59 393.218C1585.21 395.292 1584.65 397.556 1583.85 399.583H1533.39V434.238L1602 433.861L1601.72 440.65C1601.48 445.695 1601.15 448.241 1600.4 450.505C1599.83 452.202 1598.7 454.512 1597.85 455.691C1597 456.87 1595.26 458.52 1593.94 459.369C1592.66 460.217 1590.45 461.302 1589.03 461.726C1586.67 462.433 1583 462.528 1513.82 462.528L1510.76 461.019C1508.92 460.123 1506.84 458.614 1505.57 457.247C1504.44 456.021 1503.02 453.946 1502.41 452.626C1501.84 451.353 1501.14 448.666 1500.9 446.733C1500.57 444.564 1500.38 417.594 1500.19 312.639Z" fill="#7D7D7D"/>
<path d="M371.516 502.086C374.251 500.483 378.165 497.937 380.24 496.522C382.315 495.108 384.201 493.929 384.484 493.882C384.72 493.882 386.134 494.354 387.549 495.014C388.963 495.627 392.217 496.805 394.716 497.607C397.263 498.408 401.931 499.587 405.09 500.2C408.297 500.86 413.531 501.615 416.784 501.898C420.038 502.228 422.82 502.605 423.056 502.793C423.244 502.935 421.736 504.491 419.755 506.188C417.727 507.885 413.012 511.61 409.24 514.439C405.467 517.315 399.62 521.465 396.272 523.633C392.877 525.849 387.785 529.056 384.955 530.753C382.079 532.403 377.128 535.185 373.874 536.93C370.621 538.627 365.339 541.22 362.086 542.682C358.832 544.191 352.796 546.689 348.647 548.34C344.497 549.99 337.707 552.395 333.558 553.715C329.408 555.082 321.769 557.204 316.582 558.524C311.395 559.797 303.332 561.494 298.664 562.249C293.995 563.05 286.073 564.088 281.075 564.606C273.955 565.361 268.532 565.549 255.612 565.549C244.389 565.549 236.939 565.314 231.941 564.842C227.933 564.418 221.661 563.663 218.03 563.145C214.399 562.626 208.364 561.542 204.591 560.787C200.819 560.033 194.878 558.618 191.388 557.722C187.899 556.827 182.57 555.318 179.6 554.422C176.629 553.479 171.301 551.64 167.811 550.367C164.322 549.047 158.663 546.831 155.315 545.416C151.92 543.955 145.696 541.032 141.405 538.91C137.114 536.788 130.984 533.488 127.73 531.602C124.477 529.716 119.054 526.368 115.706 524.152C112.311 521.983 106.794 518.117 103.446 515.618C100.051 513.072 95.3355 509.394 92.9307 507.414C90.573 505.434 88.6868 503.595 88.8283 503.312C88.9698 503.029 98.1648 502.84 140.933 502.84L145.507 505.528C148.054 506.99 153.948 510.054 158.616 512.318C163.284 514.534 169.65 517.41 172.762 518.636C175.875 519.861 181.816 521.983 185.966 523.351C190.115 524.765 196.905 526.698 201.055 527.735C205.204 528.773 211.664 530.187 215.437 530.847C219.209 531.507 224.726 532.356 227.697 532.733C230.668 533.11 236.609 533.676 240.9 534.006C245.804 534.336 253.113 534.478 260.705 534.289C267.306 534.148 275.7 533.676 279.33 533.252C282.961 532.828 289.516 531.885 293.948 531.13C298.333 530.376 305.454 528.867 309.745 527.83C314.036 526.745 320.496 524.906 324.127 523.728C327.758 522.549 333.605 520.474 337.094 519.107C340.583 517.74 346.336 515.288 349.826 513.685C353.315 512.082 358.502 509.489 361.378 507.933C364.208 506.377 368.782 503.736 371.516 502.086Z" fill="#7D7D7D"/>
<path fill-rule="evenodd" clip-rule="evenodd" d="M798.873 100.231C802.41 100.231 807.833 100.514 810.898 100.891C813.915 101.315 818.631 102.164 821.366 102.824C824.101 103.531 828.439 104.851 831.032 105.794C833.626 106.785 838.105 108.765 840.935 110.227C843.811 111.688 847.442 113.763 849.092 114.8C850.837 115.932 852.016 117.016 852.016 117.535C852.016 117.959 851.686 119.656 851.309 121.307C850.931 122.91 849.894 125.644 848.998 127.436C848.149 129.181 846.263 132.057 844.848 133.896C843.434 135.734 841.123 138.092 839.709 139.176C838.294 140.261 836.974 141.157 836.691 141.157C836.455 141.157 834.616 140.166 832.683 138.893C830.749 137.62 827.637 135.876 825.845 134.933C824.054 134.037 820.753 132.67 818.536 131.868C816.32 131.114 812.642 130.076 810.285 129.605C807.691 129.133 803.777 128.803 800.146 128.756C796.138 128.756 793.073 128.992 790.48 129.605C788.405 130.076 784.963 131.255 782.841 132.292C780.106 133.566 777.937 135.074 775.768 137.149C773.882 138.893 771.618 141.722 770.345 143.844C769.119 145.919 767.374 149.785 766.479 152.52C765.583 155.254 764.451 159.592 763.979 162.185C763.319 166.004 763.131 169.399 763.131 180.102C763.131 190.758 763.319 194.153 763.979 197.783C764.451 200.235 765.347 204.054 766.007 206.27C766.667 208.486 768.176 212.069 769.308 214.285C770.392 216.501 772.467 219.566 773.882 221.122C775.296 222.678 777.795 224.847 779.446 225.931C781.096 227.063 783.973 228.477 785.764 229.09C787.556 229.75 790.668 230.505 792.602 230.835C794.771 231.165 798.968 231.259 803.447 231.118C807.455 231.024 813.019 230.505 820.894 229.138V198.726H812.312C805.711 198.726 803.07 198.538 801.09 197.972C799.203 197.406 797.883 196.604 796.327 195.001C794.629 193.351 793.922 192.172 793.309 190.003C792.696 187.882 792.555 186.043 792.696 182.695C792.838 180.244 793.356 176.472 794.96 170.436L816.556 170.578C837.54 170.672 838.153 170.719 840.699 171.709C842.113 172.275 844.235 173.454 845.414 174.35C846.593 175.199 848.243 176.99 849.092 178.263C849.941 179.536 850.978 181.658 851.45 182.931C852.157 185.006 852.252 188.825 852.487 249.176L847.442 250.779C844.613 251.675 840.557 252.854 838.341 253.42C836.125 253.985 832.305 254.834 829.853 255.353C827.401 255.871 822.215 256.72 818.301 257.239C813.444 257.899 807.408 258.276 798.968 258.465C789.301 258.653 785.717 258.559 781.992 257.946C779.399 257.569 775.391 256.673 773.033 256.013C770.675 255.306 767.091 253.985 765.017 252.995C762.942 252.052 759.641 250.213 757.708 248.94C755.775 247.714 752.191 244.744 749.739 242.387C747.098 239.793 744.175 236.351 742.336 233.617C740.732 231.165 738.516 227.346 737.479 225.13C736.441 222.914 734.838 218.906 733.942 216.171C733.046 213.437 731.773 208.58 731.113 205.327C730.453 202.074 729.698 196.887 729.368 193.775C729.038 190.286 728.897 183.968 729.038 177.273C729.227 169.116 729.557 165.061 730.311 160.771C730.877 157.659 731.82 153.321 732.433 151.105C733.093 148.889 734.555 144.881 735.687 142.147C736.866 139.412 738.893 135.263 740.261 132.953C741.581 130.642 743.703 127.342 744.976 125.644C746.202 123.947 749.22 120.647 751.672 118.289C754.077 115.979 757.661 112.961 759.594 111.641C761.527 110.368 764.828 108.435 766.903 107.398C768.978 106.36 772.184 104.946 773.976 104.286C775.768 103.673 779.304 102.683 781.756 102.117C784.208 101.551 787.603 100.891 789.301 100.702C790.999 100.467 795.29 100.278 798.873 100.231ZM1085.66 100.231C1089.48 100.231 1094.34 100.514 1097.22 100.938C1099.95 101.362 1103.96 102.211 1106.18 102.824C1108.39 103.484 1112.31 105.04 1114.9 106.266C1117.49 107.539 1121.31 109.849 1123.39 111.358C1125.46 112.914 1128.9 116.026 1131.07 118.242C1133.2 120.505 1136.02 123.994 1137.34 126.022C1138.66 128.002 1140.65 131.585 1141.78 133.896C1142.91 136.206 1144.61 140.449 1145.55 143.325C1146.49 146.202 1147.77 151.058 1148.38 154.17C1148.99 157.282 1149.75 161.95 1150.08 164.543C1150.41 167.136 1150.64 173.925 1150.64 179.631C1150.64 185.336 1150.41 192.125 1150.08 194.718C1149.75 197.312 1149.09 201.555 1148.57 204.148C1148.1 206.742 1146.92 211.315 1145.97 214.285C1145.03 217.256 1143.33 221.735 1142.15 224.187C1141.02 226.639 1138.66 230.788 1136.92 233.381C1135.18 236.021 1132.02 239.84 1129.75 242.104C1127.54 244.32 1124.24 247.102 1122.4 248.327C1120.6 249.506 1117.45 251.345 1115.37 252.382C1113.3 253.467 1110 254.834 1108.06 255.447C1106.13 256.107 1102.73 257.003 1100.52 257.474C1097.26 258.182 1094.53 258.37 1086.14 258.37C1076.94 258.37 1075.2 258.229 1070.81 257.239C1068.08 256.626 1064.35 255.636 1062.56 254.975C1060.77 254.315 1057.75 253.042 1055.96 252.099C1054.17 251.204 1051.05 249.365 1049.12 248.092C1047.19 246.771 1044.07 244.178 1042.24 242.339C1040.4 240.548 1037.61 237.342 1036.11 235.267C1034.55 233.192 1032.24 229.373 1030.87 226.78C1029.55 224.187 1027.81 220.132 1026.96 217.822C1026.16 215.511 1024.98 211.551 1024.36 209.099C1023.75 206.647 1022.85 202.309 1022.38 199.433C1021.68 195.19 1021.53 191.559 1021.53 179.631C1021.53 167.702 1021.68 164.071 1022.38 159.828C1022.85 156.952 1023.75 152.614 1024.36 150.162C1024.98 147.71 1026.16 143.75 1027 141.439C1027.81 139.129 1029.31 135.499 1030.35 133.424C1031.39 131.35 1033.42 127.86 1034.88 125.644C1036.34 123.428 1039.45 119.704 1041.81 117.346C1044.12 114.989 1047.75 111.924 1049.83 110.557C1051.9 109.142 1055.53 107.115 1057.84 106.03C1060.15 104.899 1064.02 103.484 1066.33 102.777C1068.64 102.117 1072.51 101.268 1074.82 100.938C1077.13 100.561 1082.03 100.278 1085.66 100.231ZM1073.73 129.605C1072.51 130.218 1070.62 131.444 1069.54 132.34C1068.45 133.188 1066.66 135.074 1065.58 136.489C1064.49 137.903 1062.79 140.779 1061.8 142.854C1060.81 144.929 1059.49 148.653 1058.83 151.105C1058.17 153.557 1057.32 157.8 1056.9 160.535C1056.48 163.27 1056 169.729 1055.86 174.916C1055.72 180.574 1055.82 187.08 1056.15 191.182C1056.43 194.954 1057.18 200.471 1057.8 203.441C1058.41 206.411 1059.59 210.655 1060.39 212.871C1061.19 215.087 1062.94 218.576 1064.3 220.651C1065.86 222.961 1067.89 225.271 1069.63 226.639C1071.19 227.912 1073.78 229.42 1075.38 230.081C1077.03 230.741 1080.19 231.495 1082.46 231.778C1085.85 232.202 1087.36 232.155 1090.85 231.542C1093.4 231.118 1096.32 230.222 1098.16 229.326C1100.14 228.336 1102.31 226.686 1104.29 224.705C1106.08 222.867 1108.06 220.226 1109.1 218.293C1110.04 216.454 1111.46 213.107 1112.26 210.749C1113.01 208.439 1114.1 203.865 1114.66 200.612C1115.51 195.991 1115.75 192.125 1115.94 182.695C1116.13 173.407 1116.03 169.163 1115.42 164.071C1114.99 160.441 1114.14 155.349 1113.53 152.755C1112.87 150.162 1111.65 146.343 1110.8 144.268C1109.95 142.194 1108.25 139.129 1107.07 137.432C1105.89 135.734 1103.96 133.613 1102.83 132.623C1101.7 131.68 1099.67 130.359 1098.4 129.699C1097.08 129.086 1094.76 128.19 1093.21 127.813C1091.46 127.342 1088.54 127.059 1085.66 127.106C1083.07 127.106 1079.82 127.436 1078.45 127.813C1077.13 128.19 1075.01 128.992 1073.73 129.605ZM645.246 102.305C650.668 102.4 656.515 102.73 658.213 103.013C659.91 103.296 661.325 103.578 661.372 103.626C661.419 103.673 672.406 137.243 709.988 252.712L708.243 253.75C707.3 254.268 705.178 255.211 703.481 255.777C701.783 256.343 698.624 257.003 696.408 257.239C693.72 257.569 690.985 257.522 688.156 257.191C685.562 256.909 683.016 256.249 681.554 255.588C680.281 254.928 678.348 253.514 677.357 252.382C676.32 251.298 674.905 249.082 674.198 247.526C673.444 245.97 671.322 239.652 665.993 222.348L617 222.065L612.002 238.615C609.267 247.714 606.957 255.306 606.815 255.447C606.674 255.636 605.306 256.013 603.75 256.296C602.194 256.626 597.526 256.861 593.376 256.861C589.227 256.909 584.558 256.626 583.002 256.343C581.446 256.013 579.419 255.4 578.523 254.928C577.627 254.504 576.589 253.608 576.212 252.948C575.599 251.864 577.202 246.819 599.978 177.98C613.369 137.385 624.592 103.956 624.922 103.626C625.205 103.343 627.657 102.871 630.392 102.588C633.127 102.353 639.823 102.211 645.246 102.305ZM636.239 158.413C634.542 164.637 631.477 175.199 629.402 181.894C627.374 188.542 625.677 194.2 625.677 194.483C625.677 194.766 631.335 194.954 641.709 194.954C654.299 194.954 657.694 194.813 657.553 194.388C657.458 194.058 655.148 186.137 652.413 176.802C649.631 167.466 646.094 155.16 644.538 149.455C642.982 143.75 641.615 139.035 641.568 138.988C641.52 138.893 641.002 140.732 640.389 142.995C639.776 145.259 637.937 152.19 636.239 158.413ZM938.308 102.305C949.625 102.447 954.104 102.635 957.169 103.248C959.385 103.673 963.063 104.663 965.421 105.417C967.732 106.219 971.315 107.728 973.39 108.812C975.418 109.896 978.671 112.113 980.699 113.716C982.68 115.319 985.273 117.865 986.499 119.374C987.678 120.882 989.517 123.711 990.554 125.644C991.592 127.578 992.959 130.878 993.619 132.953C994.279 135.027 995.081 138.516 995.364 140.732C995.741 143.231 995.883 147.38 995.694 151.812C995.553 157.093 995.223 159.781 994.468 162.421C993.902 164.354 992.488 167.89 991.356 170.201C990.224 172.511 987.914 176.142 986.263 178.216C984.613 180.291 981.642 183.214 979.756 184.77C977.823 186.279 975.324 188.07 972.023 189.909L973.909 191.418C974.946 192.219 976.832 194.153 978.058 195.709C979.284 197.217 981.218 200.424 982.397 202.734C983.528 205.044 986.405 212.399 988.762 219C991.167 225.601 994.138 233.192 995.411 235.88C997.297 239.793 998.288 241.208 1003.85 246.583L1002.39 248.469C1001.59 249.506 1000.13 250.968 999.183 251.722C998.24 252.429 996.26 253.655 994.798 254.41C993.289 255.164 990.743 256.107 989.14 256.531C987.489 256.956 984.236 257.333 981.925 257.333C979.615 257.38 976.832 257.144 975.795 256.814C974.758 256.531 972.872 255.588 971.598 254.74C970.325 253.891 968.533 252.146 967.59 250.826C966.647 249.553 965.233 247.102 964.431 245.404C963.582 243.707 960.47 235.314 957.405 226.78C954.387 218.246 951.228 209.948 950.426 208.439C949.577 206.883 948.069 204.714 947.031 203.535C945.994 202.357 944.391 201.036 943.495 200.612C942.599 200.141 940.712 199.528 939.392 199.245C938.025 198.962 933.734 198.726 922.747 198.726L922.511 255.541L920.153 255.966C918.88 256.201 912.514 256.39 906.007 256.39C899.547 256.39 893.276 256.201 889.975 255.494L889.739 105.606L892.332 102.966L907.893 102.588C916.475 102.353 930.15 102.211 938.308 102.305ZM922.747 171.851C940.948 171.427 946.23 171.049 948.116 170.625C949.719 170.248 951.888 169.541 952.925 169.022C953.963 168.503 955.66 167.23 956.698 166.193C957.735 165.156 959.103 163.175 959.763 161.808C960.376 160.488 961.177 158.178 961.46 156.763C961.79 155.254 961.885 151.765 961.79 148.276C961.602 143.703 961.319 141.817 960.517 139.789C959.951 138.375 959.008 136.442 958.348 135.546C957.735 134.65 956.226 133.141 954.953 132.292C953.727 131.397 951.511 130.218 950.096 129.699C947.786 128.851 946.088 128.709 935.148 128.568L922.841 128.379L922.747 171.851Z" fill="#00A935"/>
<path fill-rule="evenodd" clip-rule="evenodd" d="M320.213 62.5112C322.099 63.0299 326.767 64.3972 330.587 65.576C334.453 66.7075 340.489 68.735 344.026 70.0552C347.609 71.3753 352.749 73.4499 355.484 74.5815C358.219 75.7602 364.019 78.4478 368.451 80.6166C372.837 82.7855 379.108 86.086 382.362 87.9248C385.615 89.8108 391.557 93.4885 395.565 96.1288C399.573 98.7692 405.514 102.918 408.768 105.37C412.022 107.822 417.209 111.924 420.321 114.517C423.433 117.063 430.648 123.853 436.353 129.605C442.106 135.357 448.802 142.477 451.301 145.447C453.753 148.418 457.855 153.651 460.402 156.999C462.948 160.346 466.956 166.099 469.361 169.729C471.766 173.36 475.491 179.395 477.66 183.167C479.782 186.939 483.507 194.058 485.912 198.962C488.317 203.865 491.523 211.126 493.079 214.993C494.636 218.906 496.993 225.271 498.266 229.138C499.587 233.051 501.52 239.416 502.557 243.282C503.642 247.196 505.245 253.938 506.141 258.37C507.037 262.802 508.216 269.262 508.687 272.751C509.206 276.24 509.961 282.605 510.338 286.896C510.715 291.186 511.187 298.589 511.375 303.398C511.517 308.302 511.422 316.458 511.139 322.022C510.856 327.444 510.291 334.894 509.866 338.524C509.442 342.155 508.499 348.85 507.744 353.376C506.99 357.903 505.292 365.871 504.019 371.058C502.746 376.244 500.624 383.882 499.304 388.031C497.936 392.18 495.39 399.347 493.598 403.968C491.806 408.541 490.109 412.313 489.873 412.313C489.59 412.313 485.205 403.779 470.776 374.452L472.992 365.682C474.171 360.873 475.727 353.848 476.387 350.076C477.047 346.304 477.896 340.693 478.32 337.581C478.697 334.47 479.216 329.047 479.499 325.558C479.735 322.069 479.971 315.185 479.971 310.235C479.971 305.284 479.735 298.306 479.499 294.675C479.216 291.045 478.556 284.774 478.037 280.766C477.519 276.759 476.481 270.299 475.68 266.386C474.925 262.519 473.746 257.191 473.086 254.598C472.426 252.005 470.917 246.819 469.738 243.047C468.607 239.275 466.155 232.485 464.363 227.959C462.618 223.432 459.364 216.124 457.195 211.692C455.026 207.26 452.008 201.555 450.499 198.962C448.99 196.369 446.491 192.219 444.935 189.768C443.379 187.316 440.173 182.648 437.862 179.395C435.552 176.142 431.402 170.766 428.62 167.419C425.885 164.071 420.557 158.13 416.784 154.264C413.012 150.351 407.165 144.74 403.817 141.77C400.422 138.799 394.48 133.99 390.614 131.067C386.7 128.143 381.089 124.183 378.118 122.202C375.147 120.269 370.055 117.157 366.801 115.272C363.547 113.433 357.842 110.368 354.069 108.529C350.297 106.69 344.592 104.097 335.444 100.372L325.871 81.4182C320.637 70.9981 316.441 62.2755 316.535 62.0397C316.676 61.804 318.28 61.9926 320.213 62.5112ZM1070.34 306.274C1071 306.274 1074.3 306.463 1077.65 306.698C1081.04 306.981 1085.81 307.641 1088.26 308.207C1090.71 308.726 1094.25 309.716 1096.04 310.329C1097.88 310.989 1101.04 312.404 1103.11 313.441C1105.19 314.478 1108.06 316.081 1109.48 317.071C1110.89 318.014 1113.44 320.089 1115.09 321.598C1116.74 323.106 1119.14 325.747 1120.42 327.444C1121.69 329.142 1123.58 332.206 1124.61 334.281C1125.65 336.355 1126.92 339.514 1127.44 341.353C1128.01 343.381 1128.48 346.776 1128.67 350.076C1128.86 354.319 1128.76 356.158 1128.15 358.563C1127.73 360.26 1126.69 362.665 1125.84 363.938C1124.99 365.164 1123.39 366.861 1122.21 367.616C1121.03 368.37 1119.05 369.313 1117.73 369.69C1116.46 370.067 1113.91 370.492 1112.07 370.633C1110.28 370.822 1107.17 370.68 1105.23 370.445C1103.3 370.162 1100.56 369.69 1096.74 368.936V364.928C1096.74 362.712 1096.51 359.27 1096.23 357.29C1095.94 355.262 1095.19 352.009 1094.53 350.076C1093.92 348.143 1092.45 345.172 1091.32 343.475C1090.19 341.778 1088.26 339.656 1086.98 338.713C1085.76 337.77 1084.01 336.638 1083.21 336.214C1082.36 335.79 1080.34 335.13 1078.73 334.752C1077.08 334.375 1074.11 334.045 1072.13 334.045C1070.1 334.045 1067.32 334.281 1066 334.564C1064.63 334.847 1062.32 335.648 1060.91 336.308C1059.4 337.016 1057.09 338.713 1055.44 340.363C1053.27 342.532 1052.04 344.324 1050.39 347.719C1049.21 350.17 1047.8 353.801 1047.28 355.734C1046.76 357.667 1045.91 361.722 1045.39 364.692C1044.88 367.663 1044.22 373.839 1043.89 378.366C1043.6 382.892 1043.46 389.493 1043.65 392.982C1043.79 396.471 1044.36 401.799 1044.83 404.769C1045.35 407.74 1046.29 411.653 1046.9 413.492C1047.52 415.331 1048.79 418.254 1049.73 420.093C1050.68 421.932 1052.42 424.619 1053.6 426.128C1054.78 427.59 1057.04 429.806 1058.69 430.984C1060.29 432.163 1062.79 433.531 1064.21 434.049C1065.62 434.568 1067.98 435.228 1069.4 435.511C1070.81 435.794 1074.02 435.888 1076.47 435.747C1079.16 435.558 1082.65 434.992 1085.19 434.238C1087.5 433.531 1091.04 432.305 1092.97 431.456C1094.91 430.654 1098.21 428.957 1100.28 427.731C1102.36 426.458 1105.8 424.195 1107.97 422.686C1110.09 421.13 1112.02 419.857 1112.31 419.857C1112.59 419.857 1114.1 420.847 1115.7 422.12C1117.3 423.346 1119.94 426.034 1121.6 428.108C1123.25 430.183 1125.32 433.342 1126.22 435.181C1127.06 437.02 1127.91 439.236 1128.1 440.132C1128.34 441.499 1128.2 441.97 1127.3 442.913C1126.69 443.526 1124.52 445.318 1122.44 446.968C1120.37 448.571 1117.21 450.834 1115.37 451.919C1113.58 453.05 1109.52 455.172 1106.41 456.634C1103.3 458.143 1098.73 459.981 1096.27 460.783C1093.82 461.585 1090.1 462.669 1088.02 463.188C1085.95 463.706 1082.65 464.319 1080.71 464.602C1078.78 464.838 1075.48 465.215 1073.4 465.357C1071.33 465.498 1066.9 465.404 1063.5 465.121C1060.15 464.838 1055.34 464.083 1052.89 463.423C1050.44 462.81 1046.29 461.254 1043.7 459.981C1041.1 458.708 1037.28 456.398 1035.21 454.889C1033.13 453.333 1029.97 450.457 1028.18 448.571C1026.44 446.638 1023.84 443.385 1022.48 441.31C1021.11 439.236 1019.22 436.077 1018.33 434.238C1017.43 432.399 1015.97 428.91 1015.03 426.458C1014.13 424.006 1012.86 419.621 1012.2 416.793C1011.54 413.964 1010.64 409.39 1010.22 406.655C1009.75 403.638 1009.32 397.225 1009.18 390.153C1008.99 382.751 1009.13 376.574 1009.46 372.944C1009.79 369.832 1010.55 364.739 1011.16 361.628C1011.77 358.516 1013.19 353.424 1014.23 350.312C1015.31 347.2 1017.2 342.626 1018.42 340.175C1019.6 337.723 1021.58 334.234 1022.81 332.395C1023.99 330.556 1026.34 327.491 1027.99 325.558C1029.69 323.625 1032.71 320.702 1034.78 319.099C1036.81 317.449 1039.78 315.374 1041.34 314.431C1042.9 313.488 1045.87 311.979 1047.94 311.083C1050.02 310.188 1053.74 308.914 1056.19 308.302C1058.64 307.641 1062.61 306.934 1064.92 306.746C1067.23 306.51 1069.68 306.321 1070.34 306.274ZM1414.8 306.557C1417.91 306.698 1422.77 307.17 1425.64 307.641C1428.52 308.16 1433.05 309.292 1435.78 310.235C1438.52 311.225 1441.82 312.498 1443.09 313.158C1444.41 313.818 1447.24 315.563 1449.46 317.024C1451.63 318.486 1454.74 320.938 1456.29 322.494C1457.85 324.049 1460.11 326.69 1461.34 328.387C1462.57 330.085 1464.26 333.055 1465.21 334.988C1466.15 336.921 1467.33 340.222 1467.89 342.296C1468.6 344.984 1468.88 347.671 1468.93 351.49C1469.03 355.404 1468.79 357.62 1468.22 359.506C1467.8 360.92 1466.76 362.995 1466.01 364.127C1465.21 365.211 1463.84 366.625 1463.04 367.286C1462.19 367.898 1460.21 368.889 1458.65 369.454C1456.34 370.35 1454.83 370.539 1450.16 370.539C1446.53 370.539 1443.19 370.256 1437.2 368.936V366.248C1437.2 364.739 1436.96 361.628 1436.73 359.27C1436.44 356.913 1435.88 353.754 1435.5 352.198C1435.07 350.642 1434.18 348.096 1433.42 346.54C1432.72 344.984 1431.07 342.532 1429.79 341.118C1428.47 339.703 1426.21 337.864 1424.65 337.016C1423.14 336.214 1420.6 335.177 1419.04 334.8C1417.49 334.375 1414.42 334.045 1412.21 334.045C1409.99 334.045 1406.92 334.375 1405.37 334.8C1403.81 335.177 1401.5 336.073 1400.23 336.78C1398.95 337.487 1396.79 339.232 1395.37 340.646C1394 342.061 1392.21 344.418 1391.46 345.833C1390.7 347.247 1389.57 349.84 1388.91 351.632C1388.25 353.376 1387.26 356.535 1386.79 358.704C1386.27 360.826 1385.52 365.022 1385.09 367.993C1384.62 371.246 1384.2 377.894 1384.05 384.495C1383.87 392.982 1384.01 396.895 1384.57 401.233C1384.95 404.345 1385.85 408.777 1386.51 411.135C1387.17 413.492 1388.68 417.405 1389.95 419.81C1391.46 422.875 1393.15 425.327 1395.28 427.59C1397.35 429.821 1399.47 431.519 1401.64 432.682C1403.43 433.672 1406.41 434.756 1408.2 435.134C1410.04 435.558 1412.87 435.888 1414.56 435.888C1416.26 435.888 1419.42 435.558 1421.64 435.134C1423.85 434.709 1427.15 433.861 1428.94 433.201C1430.78 432.54 1434.08 431.079 1436.4 429.947C1438.66 428.816 1443.19 426.081 1446.53 423.865C1451.06 420.8 1452.76 419.904 1453.46 420.14C1453.98 420.329 1456.25 422.309 1458.46 424.525C1460.68 426.741 1463.32 429.853 1464.31 431.409C1465.35 432.965 1466.62 435.417 1467.19 436.831C1467.8 438.246 1468.32 439.943 1468.41 440.603C1468.51 441.593 1467.89 442.395 1465.25 444.799C1463.46 446.45 1460.02 449.043 1457.71 450.599C1455.4 452.155 1450.92 454.654 1447.81 456.209C1444.69 457.718 1439.6 459.793 1436.49 460.83C1433.38 461.82 1428.8 463.093 1426.35 463.612C1423.9 464.178 1419.14 464.838 1415.74 465.121C1411.26 465.498 1408.01 465.498 1403.72 465.121C1400.46 464.791 1395.89 464.083 1393.58 463.471C1391.27 462.905 1387.73 461.773 1385.8 460.924C1383.87 460.123 1380.56 458.378 1378.49 457.011C1376.42 455.644 1372.74 452.626 1370.29 450.269C1367.6 447.675 1364.72 444.281 1362.88 441.546C1361.28 439.094 1358.97 435.039 1357.84 432.588C1356.66 430.136 1355.05 426.034 1354.25 423.535C1353.45 420.989 1352.27 416.321 1351.66 413.162C1351 409.956 1350.24 405.241 1349.96 402.648C1349.68 400.054 1349.35 394.632 1349.16 390.625C1349.02 386.523 1349.16 380.299 1349.44 376.48C1349.73 372.708 1350.29 367.757 1350.72 365.4C1351.09 363.042 1351.99 359.034 1352.65 356.441C1353.31 353.848 1354.58 349.84 1355.48 347.483C1356.37 345.125 1358.26 341.023 1359.68 338.289C1361.09 335.554 1363.59 331.546 1365.24 329.33C1366.89 327.114 1369.81 323.814 1371.7 322.022C1373.63 320.183 1376.79 317.59 1378.73 316.317C1380.66 314.997 1383.54 313.252 1385.09 312.498C1386.65 311.696 1389.43 310.518 1391.22 309.857C1393.06 309.245 1396.22 308.302 1398.29 307.877C1400.37 307.406 1403.67 306.887 1405.6 306.698C1407.54 306.463 1411.69 306.416 1414.8 306.557ZM635.343 308.679C641.567 308.632 648.593 308.82 650.904 309.103C653.262 309.386 657.081 310.093 659.392 310.706C661.749 311.272 665.333 312.498 667.408 313.394C669.483 314.29 672.689 315.94 674.481 317.118C676.32 318.297 679.243 320.608 681.035 322.305C682.827 323.955 685.185 326.596 686.269 328.151C687.401 329.707 689.004 332.442 689.947 334.281C690.843 336.12 692.116 339.279 692.777 341.353C693.39 343.428 694.238 346.728 694.568 348.661C694.993 350.83 695.229 355.545 695.229 360.92C695.181 367.616 694.993 370.586 694.333 373.651C693.861 375.867 692.965 379.12 692.305 380.959C691.692 382.798 690.419 385.815 689.429 387.748C688.486 389.634 686.364 392.888 684.76 394.915C683.11 396.943 680.045 400.007 677.923 401.705C675.754 403.402 672.123 405.712 669.765 406.891C667.455 408.023 664.154 409.39 662.457 409.956C660.759 410.474 657.93 411.229 656.091 411.653C653.544 412.266 649.584 412.502 624.262 412.785L624.026 462.009L622.14 462.48C621.103 462.716 614.831 462.952 608.229 462.952C601.628 462.999 594.979 462.858 590.783 462.292V311.649L592.197 310.612C593.565 309.575 594.083 309.527 608.842 309.15C617.189 308.914 629.119 308.679 635.343 308.679ZM624.262 386.853C637.984 386.428 643.454 386.098 645.245 385.862C647.084 385.58 649.395 385.014 650.432 384.542C651.47 384.118 653.167 382.892 654.205 381.855C655.242 380.77 656.751 378.696 657.6 377.14C658.448 375.631 659.58 372.661 660.146 370.586C660.995 367.568 661.183 365.588 661.183 360.685C661.183 355.875 660.948 353.754 660.146 350.783C659.58 348.709 658.543 345.974 657.835 344.701C657.128 343.428 655.384 341.353 653.969 340.08C652.554 338.807 650.197 337.298 648.782 336.733C646.471 335.837 645.057 335.695 635.249 335.554L624.356 335.365L624.262 386.853ZM773.599 308.679C782.181 308.632 787.603 308.82 791.281 309.292C794.205 309.669 798.496 310.518 800.854 311.225C803.164 311.885 806.795 313.252 808.87 314.195C810.944 315.185 813.679 316.694 815 317.543C816.273 318.439 818.583 320.23 820.092 321.551C821.648 322.871 823.865 325.181 824.996 326.737C826.175 328.293 828.061 331.499 829.193 333.809C830.278 336.167 831.645 339.75 832.164 341.825C832.73 343.899 833.39 347.954 833.626 350.783C833.909 353.659 834.003 357.573 833.814 359.506C833.673 361.486 833.201 364.645 832.824 366.578C832.447 368.559 831.457 371.718 830.655 373.651C829.853 375.631 828.344 378.696 827.26 380.487C826.128 382.468 823.582 385.58 820.894 388.267C818.348 390.813 815.047 393.548 810.284 396.377L813.821 400.007C816.179 402.412 817.97 404.864 819.338 407.363C820.422 409.437 823.723 417.736 826.694 425.751C829.665 433.813 832.635 441.546 833.343 442.96C834.097 444.422 835.465 446.638 836.502 447.911C837.492 449.231 839.048 450.834 839.944 451.447C840.84 452.107 841.595 452.909 841.595 453.239C841.642 453.569 840.416 455.078 838.907 456.587C837.115 458.378 834.993 459.934 832.682 461.066C830.561 462.103 827.496 463.093 825.138 463.565C822.686 463.989 819.809 464.225 817.829 464.083C815.66 463.942 813.538 463.423 811.699 462.575C809.86 461.773 808.021 460.453 806.559 458.85C805.286 457.483 803.494 454.748 802.457 452.626C801.467 450.552 798.166 441.876 795.148 433.295C792.13 424.761 788.971 416.51 788.169 414.954C787.368 413.398 785.623 411.04 784.35 409.72C782.605 407.881 781.285 407.033 779.398 406.42C777.418 405.807 774.73 405.571 760.537 405.241V462.292L757.33 462.669C755.586 462.858 749.078 462.999 742.854 462.999C736.63 462.952 730.688 462.763 727.765 462.009L727.482 312.121L730.123 309.527L745.683 309.15C754.218 308.914 766.808 308.726 773.599 308.679ZM760.537 378.366C778.691 377.941 784.02 377.564 785.859 377.187C787.509 376.81 789.678 376.055 790.715 375.537C791.753 375.018 793.45 373.745 794.488 372.708C795.525 371.67 796.798 369.973 797.317 368.936C797.836 367.898 798.543 365.871 798.967 364.362C799.345 362.806 799.675 359.6 799.675 356.818C799.675 354.178 799.439 350.878 799.109 349.51C798.826 348.143 798.166 346.115 797.694 345.031C797.223 343.947 795.902 342.013 794.771 340.788C793.545 339.42 791.611 338.053 789.914 337.251C788.405 336.591 785.764 335.79 784.114 335.507C782.416 335.224 776.428 335.035 770.769 334.988H760.537V378.366ZM922.275 308.679C926 308.632 931.329 308.82 934.064 309.103C936.751 309.339 939.581 309.716 940.335 309.905C941.655 310.235 941.938 311.131 965.893 384.731C979.237 425.704 990.177 459.321 990.177 459.368C990.177 459.416 988.951 460.076 987.442 460.83C985.98 461.585 983.339 462.575 981.689 462.999C979.992 463.471 976.785 463.942 974.616 464.083C972.305 464.225 969.193 464.083 967.307 463.753C965.468 463.423 962.969 462.716 961.696 462.15C960.423 461.585 958.489 460.17 957.452 458.991C956.415 457.86 954.953 455.597 954.245 454.041C953.538 452.485 951.416 446.167 946.088 428.816L897.048 429.051L892.096 445.507C889.126 455.361 886.862 462.056 886.438 462.292C886.014 462.528 883.892 462.952 881.723 463.235C879.506 463.518 875.593 463.706 872.999 463.706C870.406 463.706 866.869 463.518 865.219 463.235C863.521 462.999 861.069 462.48 859.796 462.103C857.957 461.585 857.203 461.066 855.647 458.284L880.072 384.495C893.511 343.947 904.734 310.47 905.017 310.188C905.3 309.857 907.752 309.433 910.487 309.197C913.174 308.914 918.503 308.726 922.275 308.679ZM916.805 363.514C914.919 370.539 911.665 381.855 909.591 388.644C907.469 395.434 905.771 401.139 905.771 401.233C905.771 401.375 912.986 401.469 921.804 401.469C936.846 401.469 937.789 401.422 937.553 400.667C937.411 400.196 934.865 391.568 931.895 381.43C928.971 371.34 925.529 359.317 924.256 354.744C923.03 350.17 921.898 346.257 921.709 346.021C921.521 345.785 921.143 346.776 920.813 348.19C920.483 349.652 918.691 356.535 916.805 363.514ZM1296.91 308.679C1300.54 308.632 1305.5 308.82 1307.99 309.103C1310.45 309.339 1312.95 309.669 1314.6 309.999V462.056L1310.45 462.669C1308.14 462.999 1302.19 463.235 1296.91 463.188C1291.73 463.188 1286.07 462.905 1281.35 462.056L1281.12 309.999L1282.63 309.716C1283.47 309.575 1285.55 309.292 1287.25 309.056C1288.9 308.867 1293.28 308.726 1296.91 308.679ZM1252.97 309.763L1253.63 312.121C1254 313.441 1254.43 317.26 1254.57 320.608C1254.81 325.794 1254.71 327.161 1253.96 329.33C1253.39 331.075 1252.45 332.584 1251.08 333.951C1249.57 335.413 1248.2 336.214 1245.85 336.921C1242.92 337.864 1241.7 337.911 1215.81 337.817V462.056L1214.16 462.433C1213.22 462.669 1207.93 462.952 1202.37 463.093C1196.1 463.282 1190.35 463.188 1182.57 462.292V337.817L1164.22 338.194C1146.16 338.524 1145.88 338.524 1145.6 337.581C1145.45 337.063 1145.12 335.177 1144.84 333.338C1144.61 331.546 1144.37 327.208 1144.37 323.672C1144.37 320.183 1144.56 315.94 1144.84 314.242C1145.12 312.592 1145.45 310.8 1145.6 310.376C1145.83 309.575 1148.66 309.527 1252.97 309.763Z" fill="#7D7D7D"/>
</svg>
