<svg width="512" height="566" viewBox="0 0 512 566" fill="none" xmlns="http://www.w3.org/2000/svg">
<path d="M136.784 239.275C200.96 109.755 253.962 2.82004 254.527 1.6413C255.329 0.0382151 255.706 -0.291831 255.989 0.226813C256.178 0.604009 309.226 107.728 373.827 238.19C438.428 368.7 491.288 475.729 491.288 475.965C491.288 476.295 482.847 476.437 466.909 476.437C453.47 476.437 438.004 476.201 432.581 475.965C427.158 475.682 420.321 475.258 417.492 474.975C414.662 474.692 410.277 474.079 407.825 473.608C405.373 473.089 401.648 472.146 399.573 471.439C397.498 470.779 393.679 469.129 391.085 467.855C388.492 466.582 384.767 464.414 382.833 463.141C380.9 461.82 377.694 459.416 375.76 457.813C373.827 456.21 370.338 452.909 368.027 450.457C365.716 448.006 362.038 443.574 359.775 440.603C357.512 437.633 354.305 432.965 352.608 430.23C350.91 427.496 348.222 422.922 346.619 420.093C345.063 417.264 323.938 373.509 299.748 322.871C275.558 272.232 255.659 230.882 255.518 230.976C255.376 231.071 239.721 262.519 220.765 300.852C201.762 339.232 186.201 370.728 186.201 370.916C186.201 371.152 205.629 371.293 272.493 371.293L272.257 377.281C272.116 380.629 271.644 385.768 271.267 388.739C270.843 391.709 269.805 396.943 268.957 400.29C268.108 403.638 266.646 408.541 265.703 411.135C264.713 413.728 262.402 419.009 260.469 422.922C258.583 426.788 255.47 432.352 253.537 435.181C251.651 438.057 248.727 442.065 247.03 444.139C245.332 446.214 242.597 449.373 240.9 451.165C239.202 452.956 235.949 456.021 233.591 457.954C231.28 459.887 227.555 462.716 225.339 464.178C223.123 465.687 219.162 467.95 216.521 469.317C213.833 470.637 209.825 472.335 207.562 473.136C205.251 473.891 201.951 474.881 200.112 475.352C197.047 476.107 190.587 476.154 108.303 476.295C24.1801 476.437 19.7477 476.39 19.9363 475.635C20.0306 475.164 72.6544 368.794 136.784 239.275Z" fill="#00A935"/>
<path d="M174.554 67.4621C177.949 66.2833 183.844 64.5388 187.569 63.5015C191.294 62.4642 194.548 61.7098 194.736 61.8041C194.972 61.8984 190.822 70.6211 175.922 100.42L171.018 102.306C168.33 103.343 162.011 106.219 156.966 108.718C151.92 111.217 145.319 114.706 142.348 116.45C139.377 118.195 134.379 121.354 131.267 123.429C128.155 125.503 123.486 128.804 120.893 130.784C118.3 132.717 113.631 136.489 110.519 139.082C107.407 141.675 101.466 147.192 97.316 151.341C93.1193 155.49 87.508 161.525 84.7731 164.779C82.0381 168.032 78.2187 172.794 76.2853 175.387C74.352 177.98 71.8057 181.47 70.6269 183.167C69.4008 184.864 67.3261 188.023 65.9586 190.239C64.544 192.455 62.3749 196.039 61.1017 198.255C59.8286 200.471 56.9994 205.752 54.8774 210.042C52.7083 214.333 49.8791 220.368 48.5588 223.48C47.2856 226.592 45.2108 231.92 44.032 235.267C42.806 238.615 40.9198 244.603 39.7881 248.469C38.7036 252.382 37.0061 259.125 36.1101 263.557C35.1671 267.989 33.9882 274.637 33.4695 278.409C32.9508 282.181 32.2435 287.792 31.9606 290.904C31.6305 294.015 31.3476 302.502 31.3476 309.763C31.3476 317.024 31.5833 325.747 31.9134 329.095C32.2435 332.442 32.9508 338.194 33.4695 341.825C33.9882 345.455 35.0256 351.491 35.7801 355.263C36.5345 359.035 37.9491 364.881 40.5426 374.358L31.2061 393.312C26.0663 403.732 21.681 412.219 21.3981 412.125C21.1623 412.078 19.7948 409.249 18.4274 405.901C17.0128 402.554 14.4664 395.481 12.6746 390.153C10.9299 384.825 8.47789 376.574 7.29904 371.765C6.12019 366.956 4.61126 360.072 3.95111 356.441C3.29095 352.811 2.34787 346.681 1.82918 342.768C1.35764 338.902 0.697483 332.206 0.367405 327.916C0.0373273 322.918 -0.104135 314.714 0.0844812 305.048C0.273097 293.921 0.603175 287.745 1.35764 281.474C1.87633 276.806 2.86657 270.016 3.47957 266.386C4.09257 262.755 5.36573 256.626 6.26165 252.712C7.15758 248.846 8.85512 242.245 10.0811 238.096C11.3071 233.947 13.4291 227.393 14.8437 223.48C16.2583 219.613 18.7575 213.343 20.3135 209.571C21.9168 205.799 25.0761 199.151 27.2923 194.719C29.5557 190.286 33.328 183.403 35.7329 179.395C38.1849 175.387 41.7215 169.776 43.7019 166.9C45.6352 164.024 48.9832 159.404 51.1051 156.527C53.2742 153.651 57.3294 148.606 60.1115 145.212C62.9408 141.864 68.4578 135.829 72.3244 131.868C76.2382 127.861 81.7552 122.486 84.5844 119.939C87.4608 117.441 92.3177 113.291 95.4299 110.745C98.542 108.246 104.059 104.05 107.69 101.504C111.321 98.9108 117.074 95.0917 120.421 92.97C123.817 90.8954 129.852 87.3592 133.86 85.1903C137.868 82.9743 144.14 79.8153 147.771 78.1179C151.402 76.4676 157.485 73.8273 161.351 72.3185C165.171 70.7626 171.112 68.5937 174.554 67.4621Z" fill="#7D7D7D"/>
<path d="M371.516 502.086C374.251 500.483 378.165 497.937 380.24 496.522C382.315 495.108 384.201 493.929 384.484 493.882C384.72 493.882 386.134 494.354 387.549 495.014C388.963 495.627 392.217 496.805 394.716 497.607C397.263 498.408 401.931 499.587 405.09 500.2C408.297 500.86 413.531 501.615 416.784 501.898C420.038 502.228 422.82 502.605 423.056 502.793C423.244 502.935 421.736 504.491 419.755 506.188C417.727 507.886 413.012 511.61 409.24 514.439C405.467 517.315 399.62 521.465 396.272 523.633C392.877 525.849 387.785 529.056 384.955 530.753C382.079 532.403 377.128 535.185 373.874 536.93C370.621 538.627 365.339 541.22 362.086 542.682C358.832 544.191 352.796 546.689 348.647 548.34C344.497 549.99 337.707 552.395 333.558 553.715C329.408 555.082 321.769 557.204 316.582 558.524C311.395 559.797 303.332 561.494 298.664 562.249C293.995 563.05 286.073 564.088 281.075 564.606C273.955 565.361 268.532 565.549 255.612 565.549C244.389 565.549 236.939 565.314 231.941 564.842C227.933 564.418 221.661 563.663 218.03 563.145C214.399 562.626 208.364 561.542 204.591 560.787C200.819 560.033 194.878 558.618 191.388 557.722C187.899 556.827 182.57 555.318 179.6 554.422C176.629 553.479 171.301 551.64 167.811 550.367C164.322 549.047 158.663 546.831 155.315 545.416C151.92 543.955 145.696 541.032 141.405 538.91C137.114 536.788 130.984 533.488 127.73 531.602C124.477 529.716 119.054 526.368 115.706 524.152C112.311 521.983 106.794 518.117 103.446 515.618C100.051 513.072 95.3355 509.394 92.9307 507.414C90.573 505.434 88.6868 503.595 88.8283 503.312C88.9698 503.029 98.1648 502.84 140.933 502.84L145.507 505.528C148.054 506.99 153.948 510.054 158.616 512.318C163.284 514.534 169.65 517.41 172.762 518.636C175.875 519.861 181.816 521.983 185.966 523.351C190.115 524.765 196.905 526.698 201.055 527.735C205.204 528.773 211.664 530.187 215.437 530.847C219.209 531.507 224.726 532.356 227.697 532.733C230.668 533.11 236.609 533.676 240.9 534.006C245.804 534.336 253.113 534.478 260.705 534.289C267.306 534.148 275.7 533.676 279.33 533.252C282.961 532.828 289.516 531.885 293.948 531.13C298.333 530.376 305.454 528.867 309.745 527.83C314.036 526.745 320.496 524.906 324.127 523.728C327.758 522.549 333.605 520.474 337.094 519.107C340.583 517.74 346.336 515.288 349.826 513.685C353.315 512.082 358.502 509.489 361.378 507.933C364.208 506.377 368.782 503.736 371.516 502.086Z" fill="#7D7D7D"/>
<path fill-rule="evenodd" clip-rule="evenodd" d="M320.213 62.5112C322.099 63.0299 326.767 64.3972 330.587 65.576C334.453 66.7075 340.489 68.735 344.026 70.0552C347.609 71.3753 352.749 73.4499 355.484 74.5815C358.219 75.7602 364.019 78.4478 368.451 80.6166C372.837 82.7855 379.108 86.086 382.362 87.9248C385.615 89.8108 391.557 93.4885 395.565 96.1288C399.573 98.7692 405.514 102.918 408.768 105.37C412.022 107.822 417.209 111.924 420.321 114.517C423.433 117.063 430.648 123.853 436.353 129.605C442.106 135.357 448.802 142.477 451.301 145.447C453.753 148.418 457.855 153.651 460.402 156.999C462.948 160.346 466.956 166.099 469.361 169.729C471.766 173.36 475.491 179.395 477.66 183.167C479.782 186.939 483.507 194.058 485.912 198.962C488.317 203.865 491.523 211.126 493.079 214.993C494.636 218.906 496.993 225.271 498.266 229.138C499.587 233.051 501.52 239.416 502.557 243.282C503.642 247.196 505.245 253.938 506.141 258.37C507.037 262.802 508.216 269.262 508.687 272.751C509.206 276.24 509.961 282.605 510.338 286.896C510.715 291.186 511.187 298.589 511.375 303.398C511.517 308.302 511.422 316.458 511.139 322.022C510.856 327.444 510.291 334.894 509.866 338.524C509.442 342.155 508.499 348.85 507.744 353.376C506.99 357.903 505.292 365.871 504.019 371.058C502.746 376.244 500.624 383.882 499.304 388.031C497.936 392.18 495.39 399.347 493.598 403.968C491.806 408.541 490.109 412.313 489.873 412.313C489.59 412.313 485.205 403.779 470.776 374.452L472.992 365.682C474.171 360.873 475.727 353.848 476.387 350.076C477.047 346.304 477.896 340.693 478.32 337.581C478.697 334.47 479.216 329.047 479.499 325.558C479.735 322.069 479.971 315.185 479.971 310.235C479.971 305.284 479.735 298.306 479.499 294.675C479.216 291.045 478.556 284.774 478.037 280.766C477.519 276.759 476.481 270.299 475.68 266.386C474.925 262.519 473.746 257.191 473.086 254.598C472.426 252.005 470.917 246.819 469.738 243.047C468.607 239.275 466.155 232.485 464.363 227.959C462.618 223.432 459.364 216.124 457.195 211.692C455.026 207.26 452.008 201.555 450.499 198.962C448.99 196.369 446.491 192.219 444.935 189.768C443.379 187.316 440.173 182.648 437.862 179.395C435.552 176.142 431.402 170.766 428.62 167.419C425.885 164.071 420.557 158.13 416.784 154.264C413.012 150.351 407.165 144.74 403.817 141.77C400.422 138.799 394.48 133.99 390.614 131.067C386.7 128.143 381.089 124.183 378.118 122.202C375.147 120.269 370.055 117.157 366.801 115.272C363.547 113.433 357.842 110.368 354.069 108.529C350.297 106.69 344.592 104.097 335.444 100.372L325.871 81.4182C320.637 70.9981 316.441 62.2755 316.535 62.0397C316.676 61.804 318.28 61.9926 320.213 62.5112Z" fill="#7D7D7D"/>
</svg>
